<svg width="146" height="427" viewBox="0 0 146 427" fill="none" xmlns="http://www.w3.org/2000/svg">
<g clip-path="url(#clip0_3118_130)">
<path d="M50.3137 90.3086C55.6912 87.5322 60.7124 84.1823 65.3812 80.3702C66.063 79.7893 65.0489 78.8477 64.3671 79.4286C59.8085 83.1811 54.8405 86.4456 49.5733 89.1624C48.7728 89.5522 49.5142 90.7262 50.3137 90.3086Z" fill="white"/>
<path d="M37.1499 81.1065C38.1094 74.6595 39.6323 68.277 41.6663 62.0724C41.9182 61.2272 40.5605 60.9108 40.2806 61.7569C38.2466 67.9616 36.7517 74.3431 35.7642 80.791C35.6544 81.6872 37.012 82.0036 37.1499 81.1065Z" fill="white"/>
<path d="M55.0323 106.128C61.3242 107.142 67.5881 108.156 73.88 109.169C74.7546 109.307 75.1015 107.956 74.1989 107.82C67.907 106.806 61.6431 105.792 55.3512 104.779C54.4757 104.613 54.1288 105.964 55.0323 106.128Z" fill="white"/>
</g>
<g clip-path="url(#clip1_3118_130)">
<path d="M-84.4535 422.438C-57.0846 417.951 -31.2074 406.168 -9.25201 389.356C13.1294 372.231 31.7788 349.629 43.3672 323.859C49.3815 310.471 53.4919 295.775 52.434 280.997C51.3691 266.111 45.1248 252.012 37.2802 239.473C29.3013 226.681 19.18 214.752 6.90691 205.882C-4.27182 197.784 -18.0172 192.191 -32.0216 193.655C-53.7051 195.932 -74.6181 219.607 -64.1402 241.467C-61.23 247.519 -56.4469 252.449 -51.1337 256.461C-45.3782 260.799 -38.7737 264.332 -31.8166 266.285C-18.4507 270.049 -5.05393 266.485 6.11299 258.661C29.4646 242.341 42.3153 213.173 45.4201 185.548C48.6613 156.778 41.1866 127.837 26.5261 103.038C12.5228 79.2824 -7.67582 59.2258 -31.664 45.5511C-54.8385 32.3462 -81.7106 25.1215 -108.437 27.0405C-114.901 27.5063 -121.37 28.5281 -127.665 30.0356C-128.602 30.2642 -128.229 31.739 -127.277 31.4842C-101.833 25.3616 -75.0707 28.2905 -50.855 37.934C-26.4405 47.6574 -4.87655 63.955 11.6521 84.3064C29.0671 105.729 41.2559 131.9 44.03 159.526C46.8919 187.727 39.8353 217.408 22.6549 240.194C14.7206 250.724 4.20066 260.216 -8.52581 264.376C-22.5396 268.948 -36.7565 264.657 -48.5289 256.496C-59.1019 249.168 -67.7361 237.572 -64.9878 224.082C-62.7577 213.127 -54.3742 203.941 -44.5876 198.993C-18.5992 185.804 9.29963 206.284 25.3851 225.645C34.9855 237.204 43.2097 250.662 47.7386 265.065C52.1636 279.162 51.7414 293.715 47.6523 307.829C43.746 321.384 37.1027 334.164 29.3288 345.87C21.8083 357.199 12.9572 367.62 3.02082 376.889C-16.5651 395.173 -40.3466 409.146 -66.1043 416.661C-72.2954 418.474 -78.5713 419.887 -84.947 420.928C-85.8012 421.135 -85.4126 422.583 -84.4535 422.438Z" fill="white"/>
</g>
<defs>
<clipPath id="clip0_3118_130">
<rect x="35.1068" y="61.4585" width="38" height="49" rx="2" transform="rotate(-1.94609 35.1068 61.4585)" fill="white"/>
</clipPath>
<clipPath id="clip1_3118_130">
<rect x="-30.6565" y="453.707" width="296" height="353" rx="2" transform="rotate(-150 -30.6565 453.707)" fill="white"/>
</clipPath>
</defs>
</svg>
